<svg id="图层_1" data-name="图层 1" xmlns="http://www.w3.org/2000/svg" viewBox="0 0 130.07 65.67"><defs><style>.cls-1{font-size:26.54px;font-family:MicrosoftYaHei-Bold, Microsoft YaHei;font-weight:700;}.cls-2{fill:#1966d2;}.cls-3{fill:#fff;}</style></defs><title>青盟logo</title><text class="cls-1" transform="translate(76.69 40.72)">青盟</text><rect class="cls-2" x="0.89" y="1.09" width="63.56" height="63.56" rx="18.97"/><path class="cls-3" d="M45,52v-7.2s-11.42-2.19-20.73-9c-8-6.26.55-9.78,5.08-10.32a37.94,37.94,0,0,1,6.56-.19,15.69,15.69,0,0,1,5.72,1.38c3.26,1.51,6.73,4.52.32,9.52L42,42.48s18.46-10.81-2.66-17.37c0,0-15.71-3.28-22.21,3.84C11,35.36,22.31,47.48,45,52Z"/><polygon class="cls-3" points="23.73 32.27 23.73 12.44 27.37 14.79 30.07 27.11 33.06 17.02 39.57 20.48 39.57 41.83 35.05 39.54 35.11 22.83 30.07 36.2 26.55 22.77 26.61 34.67 23.73 32.27"/></svg>